# xmcd
# 
# Track frame offsets:
#     150
#     86449
#     102426
#     116579
#     127066
#     137898
#     153144
#     162294
#     175413
#     189548
#     204875
#     217407
#     229623
#     245167
# 
# Disc length: 3530
# 
# Revision: 0
# Processed by: cddbd v1.5.2PL0 Copyright (c) Steve Scherf et al.
# Submitted via: fre:ac v1.0.27
# 
DISCID=c90dc80e
DTITLE=Darren Mitchell - Turok: Dinosaur Hunter
DYEAR=1997
DGENRE=Soundtrack
TTITLE0=Data Track
TTITLE1=Lost Jungle
TTITLE2=The Hub (Turok Theme)
TTITLE3=The Ancient City
TTITLE4=The Longshunter
TTITLE5=Ancient Ruins
TTITLE6=The Catacombs
TTITLE7=Ancient Caves
TTITLE8=Treetop Village
TTITLE9=Lost Caves
TTITLE10=The Lost Land
TTITLE11=The Campaigner's Fortress
TTITLE12=Thunder
TTITLE13=The Campaigner
EXTD=
EXTT0=
EXTT1=
EXTT2=
EXTT3=
EXTT4=
EXTT5=
EXTT6=
EXTT7=
EXTT8=
EXTT9=
EXTT10=
EXTT11=
EXTT12=
EXTT13=
PLAYORDER=
